HIERARCHY
ROOT newVegas:Hips
{
	OFFSET 0.000000 96.479958 0.000000
	CHANNELS 6 Xposition Yposition Zposition Xrotation Yrotation Zrotation
	JOINT newVegas:Pelvis
	{
		OFFSET 0.000000 0.000000 0.000000
		CHANNELS 3 Xrotation Yrotation Zrotation
		JOINT newVegas:LeftUpLeg
		{
			OFFSET 18.735201 -5.666702 -4.541200
			CHANNELS 3 Xrotation Yrotation Zrotation
			JOINT newVegas:LeftLeg
			{
				OFFSET -0.021200 -31.938179 0.493100
				CHANNELS 3 Xrotation Yrotation Zrotation
				JOINT newVegas:LeftFoot
				{
					OFFSET 0.021200 -31.938179 -4.336299
					CHANNELS 3 Xrotation Yrotation Zrotation
					JOINT newVegas:LeftToeBase
					{
						OFFSET 0.943001 -26.722000 15.023500
						CHANNELS 3 Xrotation Yrotation Zrotation
						End Site
						{
							OFFSET 0.000000 30.670183 0.000000
						}
					}
				}
				JOINT newVegas:Left_PantLeg
				{
					OFFSET 0.663870 -9.044666 -1.108900
					CHANNELS 3 Xrotation Yrotation Zrotation
					End Site
					{
						OFFSET 1.415995 20.635357 0.000000
					}
				}
			}
		}
		JOINT newVegas:RightUpLeg
		{
			OFFSET -18.735201 -5.666702 -4.541200
			CHANNELS 3 Xrotation Yrotation Zrotation
			JOINT newVegas:RightLeg
			{
				OFFSET 0.018946 -31.938133 0.493100
				CHANNELS 3 Xrotation Yrotation Zrotation
				JOINT newVegas:RightFoot
				{
					OFFSET -0.018946 -31.938126 -4.336299
					CHANNELS 3 Xrotation Yrotation Zrotation
					JOINT newVegas:RightToeBase
					{
						OFFSET -0.943001 -26.722004 15.023500
						CHANNELS 3 Xrotation Yrotation Zrotation
						End Site
						{
							OFFSET 0.000000 30.670187 0.000000
						}
					}
				}
				JOINT newVegas:Right_PantLeg
				{
					OFFSET -0.661674 -9.044716 -1.108900
					CHANNELS 3 Xrotation Yrotation Zrotation
					End Site
					{
						OFFSET -1.415958 20.635269 0.000000
					}
				}
			}
		}
	}
	JOINT newVegas:Spine
	{
		OFFSET 0.000000 10.199997 -0.299500
		CHANNELS 3 Xrotation Yrotation Zrotation
		JOINT newVegas:Spine1
		{
			OFFSET 0.000000 11.900002 -1.516600
			CHANNELS 3 Xrotation Yrotation Zrotation
			JOINT newVegas:Spine2
			{
				OFFSET 0.000000 13.600006 -2.842500
				CHANNELS 3 Xrotation Yrotation Zrotation
				JOINT newVegas:Neck
				{
					OFFSET 0.000000 9.624100 -2.890100
					CHANNELS 3 Xrotation Yrotation Zrotation
					JOINT newVegas:Head
					{
						OFFSET 0.000000 14.068802 -1.351900
						CHANNELS 3 Xrotation Yrotation Zrotation
						JOINT newVegas:Hair_Back
						{
							OFFSET 0.000000 3.231903 -17.524799
							CHANNELS 3 Xrotation Yrotation Zrotation
							End Site
							{
								OFFSET 0.000000 19.849884 0.000000
							}
						}
						JOINT newVegas:Hair_Front
						{
							OFFSET 0.000000 31.260406 4.573800
							CHANNELS 3 Xrotation Yrotation Zrotation
							JOINT newVegas:Hair_Front1
							{
								OFFSET 0.000000 2.284103 11.993300
								CHANNELS 3 Xrotation Yrotation Zrotation
								JOINT newVegas:Hair_Front2
								{
									OFFSET 0.000000 2.284103 11.993300
									CHANNELS 3 Xrotation Yrotation Zrotation
									End Site
									{
										OFFSET 0.000000 12.208862 0.000000
									}
								}
							}
						}
						JOINT newVegas:Jowel
						{
							OFFSET 0.000000 -7.458206 6.864100
							CHANNELS 3 Xrotation Yrotation Zrotation
							End Site
							{
								OFFSET 0.000000 19.849884 0.000000
							}
						}
					}
				}
				JOINT newVegas:LeftShoulder
				{
					OFFSET 15.263000 10.923401 -0.547700
					CHANNELS 3 Xrotation Yrotation Zrotation
					JOINT newVegas:LeftArm
					{
						OFFSET 25.438599 -2.830597 -13.032500
						CHANNELS 3 Xrotation Yrotation Zrotation
						JOINT newVegas:LeftForeArm
						{
							OFFSET 29.960503 0.000000 0.000000
							CHANNELS 3 Xrotation Yrotation Zrotation
							JOINT newVegas:LeftHand
							{
								OFFSET 27.849251 0.000000 0.000000
								CHANNELS 3 Xrotation Yrotation Zrotation
								JOINT newVegas:LeftHandThumb1
								{
									OFFSET 4.487587 -3.305161 6.305391
									CHANNELS 3 Xrotation Yrotation Zrotation
									JOINT newVegas:LeftHandThumb2
									{
										OFFSET 5.480453 -3.164139 3.164143
										CHANNELS 3 Xrotation Yrotation Zrotation
										JOINT newVegas:LeftHandThumb3
										{
											OFFSET 5.159721 -2.978973 2.978967
											CHANNELS 3 Xrotation Yrotation Zrotation
											End Site
											{
												OFFSET 2.494507 5.926697 1.738678
											}
										}
									}
								}
								JOINT newVegas:LeftHandIndex1
								{
									OFFSET 18.578728 -0.527832 5.208049
									CHANNELS 3 Xrotation Yrotation Zrotation
									JOINT newVegas:LeftHandIndex2
									{
										OFFSET 3.192009 0.000000 0.000000
										CHANNELS 3 Xrotation Yrotation Zrotation
										JOINT newVegas:LeftHandIndex3
										{
											OFFSET 3.835129 0.000000 0.000000
											CHANNELS 3 Xrotation Yrotation Zrotation
											End Site
											{
												OFFSET -0.034599 3.816971 0.371180
											}
										}
									}
								}
								JOINT newVegas:LeftHandMiddle1
								{
									OFFSET 18.476105 0.000000 0.000000
									CHANNELS 3 Xrotation Yrotation Zrotation
									JOINT newVegas:LeftHandMiddle2
									{
										OFFSET 3.324875 0.000000 0.000000
										CHANNELS 3 Xrotation Yrotation Zrotation
										JOINT newVegas:LeftHandMiddle3
										{
											OFFSET 4.596550 0.000000 0.000000
											CHANNELS 3 Xrotation Yrotation Zrotation
											End Site
											{
												OFFSET 0.057701 4.578827 0.399218
											}
										}
									}
								}
								JOINT newVegas:LeftHandRing1
								{
									OFFSET 17.732719 0.121887 -4.201567
									CHANNELS 3 Xrotation Yrotation Zrotation
									JOINT newVegas:LeftHandRing2
									{
										OFFSET 2.733170 0.000000 0.000000
										CHANNELS 3 Xrotation Yrotation Zrotation
										JOINT newVegas:LeftHandRing3
										{
											OFFSET 3.178268 0.000000 0.000000
											CHANNELS 3 Xrotation Yrotation Zrotation
											End Site
											{
												OFFSET 0.119102 3.170624 0.185394
											}
										}
									}
								}
								JOINT newVegas:LeftHandPinky1
								{
									OFFSET 15.989624 -0.606689 -7.535461
									CHANNELS 3 Xrotation Yrotation Zrotation
									JOINT newVegas:LeftHandPinky2
									{
										OFFSET 2.538986 0.000000 0.000000
										CHANNELS 3 Xrotation Yrotation Zrotation
										JOINT newVegas:LeftHandPinky3
										{
											OFFSET 2.593102 0.000000 0.000000
											CHANNELS 3 Xrotation Yrotation Zrotation
											End Site
											{
												OFFSET -0.150902 2.584198 0.152708
											}
										}
									}
								}
							}
							JOINT newVegas:Left_Sleeve
							{
								OFFSET 0.267448 -0.649796 0.577675
								CHANNELS 3 Xrotation Yrotation Zrotation
								End Site
								{
									OFFSET 0.000000 15.991241 0.000000
								}
							}
							JOINT newVegas:Left_CapeC
							{
								OFFSET 15.715958 -8.608795 -6.935905
								CHANNELS 3 Xrotation Yrotation Zrotation
								JOINT newVegas:Left_CapeC1
								{
									OFFSET 0.000000 -8.688499 0.000000
									CHANNELS 3 Xrotation Yrotation Zrotation
									End Site
									{
										OFFSET 0.000000 8.688499 0.000000
									}
								}
							}
						}
						JOINT newVegas:Left_CapeB
						{
							OFFSET 26.118385 -8.608795 -7.079235
							CHANNELS 3 Xrotation Yrotation Zrotation
							JOINT newVegas:Left_CapeB1
							{
								OFFSET 0.000000 -8.688499 0.000000
								CHANNELS 3 Xrotation Yrotation Zrotation
								End Site
								{
									OFFSET 0.000000 8.688499 0.000000
								}
							}
						}
						JOINT newVegas:Left_CapeA
						{
							OFFSET 5.115639 -8.608795 -10.395809
							CHANNELS 3 Xrotation Yrotation Zrotation
							JOINT newVegas:Left_CapeA1
							{
								OFFSET 0.000000 -8.688499 0.000000
								CHANNELS 3 Xrotation Yrotation Zrotation
								End Site
								{
									OFFSET 0.000000 8.688499 0.000000
								}
							}
						}
					}
				}
				JOINT newVegas:RightShoulder
				{
					OFFSET -15.263000 10.923401 -0.547700
					CHANNELS 3 Xrotation Yrotation Zrotation
					JOINT newVegas:RightArm
					{
						OFFSET -25.438599 -2.830597 -13.032500
						CHANNELS 3 Xrotation Yrotation Zrotation
						JOINT newVegas:RightForeArm
						{
							OFFSET -29.960503 0.000000 0.000000
							CHANNELS 3 Xrotation Yrotation Zrotation
							JOINT newVegas:RightHand
							{
								OFFSET -27.849251 0.000000 0.000000
								CHANNELS 3 Xrotation Yrotation Zrotation
								JOINT newVegas:RightHandThumb1
								{
									OFFSET -4.487587 -3.305161 6.305391
									CHANNELS 3 Xrotation Yrotation Zrotation
									JOINT newVegas:RightHandThumb2
									{
										OFFSET -5.480453 -3.164139 3.164143
										CHANNELS 3 Xrotation Yrotation Zrotation
										JOINT newVegas:RightHandThumb3
										{
											OFFSET -5.159721 -2.978973 2.978967
											CHANNELS 3 Xrotation Yrotation Zrotation
											End Site
											{
												OFFSET -2.494507 5.926697 1.738678
											}
										}
									}
								}
								JOINT newVegas:RightHandIndex1
								{
									OFFSET -18.578728 -0.527832 5.208049
									CHANNELS 3 Xrotation Yrotation Zrotation
									JOINT newVegas:RightHandIndex2
									{
										OFFSET -3.192009 0.000000 0.000000
										CHANNELS 3 Xrotation Yrotation Zrotation
										JOINT newVegas:RightHandIndex3
										{
											OFFSET -3.835129 0.000000 0.000000
											CHANNELS 3 Xrotation Yrotation Zrotation
											End Site
											{
												OFFSET 0.034599 3.816971 0.371180
											}
										}
									}
								}
								JOINT newVegas:RightHandMiddle1
								{
									OFFSET -18.476105 0.000000 0.000000
									CHANNELS 3 Xrotation Yrotation Zrotation
									JOINT newVegas:RightHandMiddle2
									{
										OFFSET -3.324875 0.000000 0.000000
										CHANNELS 3 Xrotation Yrotation Zrotation
										JOINT newVegas:RightHandMiddle3
										{
											OFFSET -4.596550 0.000000 0.000000
											CHANNELS 3 Xrotation Yrotation Zrotation
											End Site
											{
												OFFSET -0.057701 4.578827 0.399218
											}
										}
									}
								}
								JOINT newVegas:RightHandRing1
								{
									OFFSET -17.732719 0.121887 -4.201567
									CHANNELS 3 Xrotation Yrotation Zrotation
									JOINT newVegas:RightHandRing2
									{
										OFFSET -2.733170 0.000000 0.000000
										CHANNELS 3 Xrotation Yrotation Zrotation
										JOINT newVegas:RightHandRing3
										{
											OFFSET -3.178268 0.000000 0.000000
											CHANNELS 3 Xrotation Yrotation Zrotation
											End Site
											{
												OFFSET -0.119102 3.170624 0.185394
											}
										}
									}
								}
								JOINT newVegas:RightHandPinky1
								{
									OFFSET -15.989624 -0.606689 -7.535461
									CHANNELS 3 Xrotation Yrotation Zrotation
									JOINT newVegas:RightHandPinky2
									{
										OFFSET -2.538986 0.000000 0.000000
										CHANNELS 3 Xrotation Yrotation Zrotation
										JOINT newVegas:RightHandPinky3
										{
											OFFSET -2.593102 0.000000 0.000000
											CHANNELS 3 Xrotation Yrotation Zrotation
											End Site
											{
												OFFSET 0.150902 2.584198 0.152708
											}
										}
									}
								}
							}
							JOINT newVegas:Right_CapeC
							{
								OFFSET -15.715958 -8.608795 -6.935905
								CHANNELS 3 Xrotation Yrotation Zrotation
								JOINT newVegas:Right_CapeC1
								{
									OFFSET 0.000000 -8.688499 0.000000
									CHANNELS 3 Xrotation Yrotation Zrotation
									End Site
									{
										OFFSET 0.000000 8.688499 0.000000
									}
								}
							}
							JOINT newVegas:Right_Sleeve
							{
								OFFSET -0.267448 -0.649994 0.577675
								CHANNELS 3 Xrotation Yrotation Zrotation
								End Site
								{
									OFFSET 0.000000 15.991302 0.000000
								}
							}
						}
						JOINT newVegas:Right_CapeA
						{
							OFFSET -5.115540 -8.608795 -10.395824
							CHANNELS 3 Xrotation Yrotation Zrotation
							JOINT newVegas:Right_CapeA1
							{
								OFFSET 0.000000 -8.688499 0.000000
								CHANNELS 3 Xrotation Yrotation Zrotation
								End Site
								{
									OFFSET 0.000000 8.688499 0.000000
								}
							}
						}
						JOINT newVegas:Right_CapeB
						{
							OFFSET -26.118187 -8.608795 -7.079266
							CHANNELS 3 Xrotation Yrotation Zrotation
							JOINT newVegas:Right_CapeB1
							{
								OFFSET 0.000000 -8.688499 0.000000
								CHANNELS 3 Xrotation Yrotation Zrotation
								End Site
								{
									OFFSET 0.000000 8.688499 0.000000
								}
							}
						}
					}
				}
				JOINT newVegas:Left_Collar
				{
					OFFSET 18.625099 8.655502 8.828100
					CHANNELS 3 Xrotation Yrotation Zrotation
					JOINT newVegas:Left_Collar1
					{
						OFFSET 14.783401 10.540405 -1.259500
						CHANNELS 3 Xrotation Yrotation Zrotation
						End Site
						{
							OFFSET 0.000000 18.199875 0.000000
						}
					}
				}
				JOINT newVegas:Collar_Back
				{
					OFFSET 0.000000 15.630707 -20.132601
					CHANNELS 3 Xrotation Yrotation Zrotation
					End Site
					{
						OFFSET 0.000000 22.523010 0.000000
					}
				}
				JOINT newVegas:Left_Peck
				{
					OFFSET 17.239599 -5.132599 25.482599
					CHANNELS 3 Xrotation Yrotation Zrotation
					End Site
					{
						OFFSET 0.000000 22.523010 0.000000
					}
				}
				JOINT newVegas:Right_Peck
				{
					OFFSET -17.239599 -5.132202 25.482599
					CHANNELS 3 Xrotation Yrotation Zrotation
					End Site
					{
						OFFSET 0.000000 22.523010 0.000000
					}
				}
				JOINT newVegas:Right_Collar
				{
					OFFSET -18.625099 8.655792 8.828100
					CHANNELS 3 Xrotation Yrotation Zrotation
					JOINT newVegas:Right_Collar1
					{
						OFFSET -14.783401 10.539993 -1.259500
						CHANNELS 3 Xrotation Yrotation Zrotation
						End Site
						{
							OFFSET 0.000000 18.199631 0.000000
						}
					}
				}
			}
		}
		JOINT newVegas:Belly
		{
			OFFSET 0.000000 -6.540398 9.014299
			CHANNELS 3 Xrotation Yrotation Zrotation
			End Site
			{
				OFFSET 0.000000 11.566666 0.000000
			}
		}
	}
	JOINT newVegas:ElvisFacialAnim_Joint
	{
		OFFSET 1.000000 -95.330101 -8.825800
		CHANNELS 3 Xrotation Yrotation Zrotation
		End Site
		{
			OFFSET 0.000000 35.315800 0.000000
		}
	}
}
MOTION
Frames: 4
Frame Time: 0.033333
-0.554693 77.495560 6.598068 20.388755 -12.844289 -4.924368 0.000002 -0.000001 -0.000000 -103.005482 -1.852955 13.727727 121.226569 1.836124 1.368621 24.390013 3.048514 16.728200 -0.000001 0.000000 -0.000001 -0.000001 0.000000 0.000001 -26.703849 1.889516 1.563245 56.809651 7.264219 -3.996914 -43.147692 -2.456928 4.993695 0.000001 -0.000001 0.000000 0.000001 0.000000 -0.000000 15.003972 11.799732 0.761202 1.125368 3.043481 0.718811 1.161057 3.003452 0.698312 -2.959069 -0.686916 0.533940 -2.959037 -0.686915 0.533942 0.000002 0.000000 -0.000000 -2.959005 -0.686917 0.533941 -2.959137 -0.686910 0.533938 -0.000001 -0.000000 -0.000001 0.000002 0.000000 0.000000 0.742361 3.088822 -12.371805 42.308634 15.801661 -67.596996 0.000024 -65.652714 0.000012 16.513454 -11.285881 20.526213 -6.294528 -5.259263 19.134765 15.737195 25.746251 -15.059613 -0.000000 -0.000002 -0.000008 -4.045837 -10.147596 -29.308437 4.736674 5.744319 -79.001725 -0.000000 0.000003 0.000001 -4.499591 0.901278 -48.454144 3.485918 5.353242 -66.120582 -0.000001 0.000001 -0.000001 -3.481931 2.398520 -51.838738 4.533386 5.701250 -76.963255 0.000001 0.000003 0.000002 -1.657126 4.477723 -57.526046 2.712001 4.940186 -57.509585 0.000000 -0.000002 0.000000 0.000000 -0.000001 0.000000 0.000000 -0.000001 0.000000 0.000000 -0.000001 0.000001 0.000000 0.000002 -0.000000 0.000000 0.000001 -0.000000 0.000000 0.000002 -0.000000 0.000001 0.000002 0.000000 0.028181 10.433405 18.794053 -26.037547 18.459782 42.054629 0.000134 101.391727 -0.000155 35.578247 9.393029 -11.571786 -14.786333 11.868586 3.039666 18.898993 -22.871787 3.225921 0.000002 -0.000003 -0.000003 -10.662757 5.825465 53.107600 1.747169 -3.637663 51.298658 -0.000004 0.000000 0.000000 -2.845604 -0.150979 37.995062 2.038294 -3.852408 55.753352 0.000001 0.000003 -0.000000 1.381148 -5.617912 36.360143 2.054862 -3.863604 55.999632 0.000001 0.000002 0.000000 -0.284554 -12.773791 29.359862 2.349871 -4.046528 60.274924 -0.000000 0.000002 -0.000001 -0.000002 -0.000000 -0.000001 -0.000002 -0.000001 -0.000003 -0.000002 -0.000000 -0.000001 -0.000001 0.000001 -0.000000 -0.000000 0.000002 -0.000000 -0.000001 0.000001 -0.000000 -0.000000 0.000001 -0.000000 0.000001 -0.000000 -0.000000 0.000001 -0.000000 -0.000000 0.000001 -0.000000 -0.000000 0.000001 -0.000000 -0.000000 0.000001 -0.000000 -0.000000 0.000001 -0.000000 -0.000000 0.000001 -0.000000 -0.000000 -0.000001 0.000000 -0.000000 0.000002 -0.000001 -0.000000 
-0.654638 75.130066 13.799339 19.420965 -14.296061 -4.459820 -0.000000 0.000000 -0.000000 -107.317490 -4.513478 15.806574 123.772494 2.677383 -0.258114 36.847136 7.423799 18.464320 0.000001 -0.000001 -0.000001 -0.000003 0.000000 -0.000001 -16.773606 1.894973 2.934392 54.537220 -5.360928 -3.826659 -52.205991 3.440714 2.575994 0.000000 0.000000 0.000000 0.000000 0.000000 -0.000000 14.583706 11.897099 0.256889 1.186898 2.812245 0.406015 1.244389 2.771172 0.389052 -2.818866 -0.638068 0.357719 -2.818836 -0.638067 0.357720 0.000001 -0.000000 -0.000000 -2.818922 -0.638065 0.357719 -2.818765 -0.638069 0.357721 -0.000000 0.000000 -0.000000 0.000001 -0.000000 -0.000000 0.174760 1.443645 -6.962585 41.127923 19.914115 -66.219019 -0.000008 -60.102618 -0.000001 9.992832 -16.489963 16.211314 -6.294523 -5.259255 19.134780 15.737195 25.746244 -15.059626 0.000000 -0.000001 -0.000001 -3.818609 -9.567666 -31.029068 4.809928 5.758004 -79.732746 0.000000 -0.000002 -0.000001 -4.462889 1.185751 -49.685644 3.567334 5.388396 -66.990420 0.000000 0.000001 0.000000 -3.704743 2.405677 -52.927194 4.600993 5.716414 -77.642927 0.000000 0.000001 0.000002 -2.270711 4.188724 -58.361480 2.763207 4.972314 -58.102329 -0.000000 0.000000 0.000000 0.000000 -0.000001 0.000003 0.000000 -0.000001 0.000003 0.000000 -0.000001 0.000003 -0.000001 -0.000001 -0.000000 -0.000001 -0.000002 -0.000001 -0.000001 -0.000001 -0.000000 -0.000001 -0.000000 0.000000 0.218939 9.539577 17.606274 -24.467775 17.163603 42.343426 -0.000705 98.900968 0.000725 34.546547 9.346290 -11.372611 -14.786330 11.868591 3.039665 18.898995 -22.871785 3.225920 -0.000002 -0.000006 -0.000001 -10.662753 5.825473 53.107607 1.747174 -3.637664 51.298655 -0.000001 -0.000002 0.000003 -2.845601 -0.150977 37.995065 2.038294 -3.852404 55.753349 0.000000 0.000003 -0.000002 1.381147 -5.617904 36.360143 2.054862 -3.863598 55.999638 -0.000001 -0.000001 -0.000000 -0.284554 -12.773787 29.359858 2.349869 -4.046523 60.274924 -0.000001 0.000002 -0.000000 -0.000001 0.000000 -0.000000 -0.000001 -0.000001 -0.000000 -0.000001 0.000000 0.000001 -0.000002 0.000001 -0.000001 -0.000001 0.000001 -0.000001 -0.000002 0.000001 -0.000001 -0.000001 0.000001 -0.000001 -0.000000 -0.000000 -0.000000 -0.000000 -0.000000 -0.000000 -0.000000 -0.000000 -0.000000 -0.000000 -0.000000 -0.000000 -0.000000 -0.000000 -0.000000 -0.000000 -0.000000 -0.000000 -0.000000 -0.000000 -0.000000 -0.000003 -0.000000 0.000000 -0.000000 0.000000 -0.000000 
-2.468642 72.055008 27.751541 16.953633 -20.613007 -5.769004 -0.000001 0.000001 -0.000001 -118.899687 -6.849163 16.531086 120.371006 0.114792 -1.922757 53.387129 21.908271 30.610712 -0.000001 -0.000000 0.000000 -0.000001 0.000000 -0.000001 1.986133 5.157706 0.585169 39.727833 -5.558272 -8.056260 -48.526158 1.390432 9.647862 0.000000 -0.000000 -0.000001 0.000002 0.000000 -0.000000 16.532919 15.025334 -1.037945 2.020074 2.918430 -0.101235 2.107793 2.869830 -0.091244 -2.670932 -0.643745 0.194001 -2.670926 -0.643745 0.194001 -0.000000 0.000000 0.000000 -2.670842 -0.643742 0.194002 -2.671004 -0.643748 0.194001 -0.000001 -0.000000 0.000000 -0.000000 0.000000 0.000000 -0.621106 -2.373871 5.606272 36.473046 28.065145 -61.803103 -0.000001 -44.208215 0.000013 -1.897520 -21.728071 6.468551 -6.294529 -5.259255 19.134787 15.737176 25.746253 -15.059592 0.000003 -0.000002 -0.000005 -3.254189 -8.443354 -34.901823 4.932341 5.778740 -80.950582 0.000001 -0.000001 -0.000002 -4.361849 1.769214 -52.240644 3.716904 5.449213 -68.574143 -0.000003 0.000000 0.000001 -4.153012 2.447322 -55.086842 4.710034 5.739090 -78.735491 0.000002 0.000001 0.000000 -3.529416 3.640725 -59.888533 2.839361 5.018724 -58.976826 -0.000002 -0.000003 -0.000002 -0.000001 0.000002 0.000001 -0.000001 0.000002 0.000001 -0.000001 0.000002 0.000001 -0.000000 0.000000 0.000002 0.000000 -0.000001 0.000002 -0.000000 0.000000 0.000002 -0.000001 0.000001 0.000002 0.129918 10.623712 19.292298 -23.244626 16.431876 39.147086 -0.000754 91.551671 0.000771 28.843284 11.731464 -8.561757 -14.786330 11.868589 3.039669 18.898993 -22.871781 3.225918 0.000004 -0.000001 0.000001 -10.662756 5.825467 53.107603 1.747172 -3.637665 51.298658 -0.000003 0.000001 -0.000004 -2.845603 -0.150978 37.995065 2.038289 -3.852405 55.753352 -0.000002 -0.000001 -0.000002 1.381147 -5.617910 36.360147 2.054864 -3.863599 55.999635 0.000000 0.000004 -0.000000 -0.284560 -12.773784 29.359858 2.349873 -4.046532 60.274917 -0.000000 -0.000000 0.000000 -0.000001 -0.000000 -0.000001 0.000001 -0.000000 -0.000001 -0.000001 -0.000001 -0.000001 0.000002 0.000000 -0.000000 0.000002 0.000000 -0.000000 0.000002 0.000000 -0.000000 0.000002 -0.000000 -0.000000 0.000001 0.000000 0.000000 0.000001 0.000000 0.000000 0.000001 0.000000 0.000000 0.000001 0.000000 0.000000 0.000001 0.000000 0.000000 0.000001 0.000000 0.000000 0.000001 0.000000 0.000000 0.000000 0.000000 0.000000 -0.000001 0.000001 -0.000001 
-3.738584 73.163124 37.963219 13.264854 -25.652565 -6.235881 -0.000002 0.000000 0.000001 -116.107137 -12.219844 12.528013 107.412880 -5.506525 -1.286637 46.252627 17.453512 29.590207 0.000002 0.000001 -0.000001 -0.000000 0.000001 0.000000 11.710669 3.837249 -4.718807 29.150486 -4.669155 -8.596582 -36.882082 4.482456 13.842462 -0.000001 -0.000001 -0.000000 0.000002 0.000000 -0.000001 20.073982 14.794034 -4.642756 3.072142 2.366610 -0.876646 3.182701 2.297085 -0.818149 -2.532735 -0.514775 0.079203 -2.532695 -0.514778 0.079201 0.000001 0.000000 0.000000 -2.532703 -0.514785 0.079207 -2.532795 -0.514770 0.079204 0.000000 0.000000 0.000000 0.000001 0.000000 0.000000 -0.270369 -5.252848 17.224882 30.270811 35.876098 -55.538840 -0.000016 -30.506896 -0.000001 -9.611035 -19.896824 0.122173 -6.294532 -5.259260 19.134777 15.737186 25.746251 -15.059606 -0.000000 0.000000 -0.000003 -2.651715 -7.596634 -38.980982 4.957449 5.782658 -81.199905 -0.000000 -0.000005 0.000002 -4.246921 2.260175 -54.419095 3.789966 5.477191 -69.341522 -0.000001 0.000002 -0.000001 -4.480663 2.505573 -56.674881 4.719340 5.740922 -78.828443 0.000002 0.000001 -0.000000 -4.506797 3.199974 -60.654047 2.821404 5.007927 -58.771326 -0.000000 -0.000004 0.000003 0.000000 -0.000001 -0.000001 0.000000 -0.000001 -0.000001 -0.000000 -0.000001 -0.000001 -0.000000 -0.000002 -0.000000 -0.000000 -0.000003 0.000000 -0.000000 -0.000002 -0.000000 -0.000002 -0.000003 -0.000000 -0.102770 14.339770 21.284874 -20.805945 18.328222 35.692653 0.000163 84.020664 -0.000156 20.035902 14.365150 -7.524264 -14.786332 11.868587 3.039667 18.898993 -22.871787 3.225919 -0.000000 0.000000 -0.000000 -10.662754 5.825468 53.107607 1.747170 -3.637666 51.298665 -0.000004 -0.000002 0.000001 -2.845604 -0.150975 37.995065 2.038291 -3.852407 55.753349 -0.000000 -0.000006 -0.000003 1.381144 -5.617907 36.360147 2.054869 -3.863605 55.999635 -0.000002 -0.000001 -0.000001 -0.284559 -12.773786 29.359858 2.349873 -4.046525 60.274924 -0.000000 0.000007 -0.000001 -0.000001 -0.000002 0.000002 0.000001 -0.000000 0.000001 -0.000001 -0.000002 0.000002 -0.000002 0.000002 0.000002 -0.000001 0.000002 0.000002 -0.000002 0.000002 0.000002 -0.000001 0.000002 0.000002 -0.000004 0.000000 -0.000000 -0.000004 0.000000 -0.000000 -0.000004 0.000000 -0.000000 -0.000004 0.000000 -0.000000 -0.000004 0.000000 -0.000000 -0.000004 0.000000 -0.000000 -0.000004 0.000000 -0.000000 -0.000002 -0.000000 -0.000000 -0.000002 0.000000 0.000001 
